<svg xmlns="http://www.w3.org/2000/svg" version="1.0" width="500.000000pt" height="500.000000pt" viewBox="0 0 500.000000 500.000000" preserveAspectRatio="xMidYMid meet">

<g transform="translate(0.000000,500.000000) scale(0.100000,-0.100000)" fill="#db0000" stroke="none">
<path d="M2176 4143 c-7 -16 -71 -163 -141 -328 -70 -165 -168 -394 -217 -510 -50 -115 -91 -217 -92 -225 0 -8 -4 -18 -9 -21 -4 -3 -23 -46 -43 -95 -20 -49 -47 -111 -60 -138 -13 -28 -24 -58 -24 -67 0 -10 -4 -21 -10 -24 -5 -3 -10 -17 -10 -31 0 -13 -4 -24 -8 -24 -5 0 -14 -11 -20 -25 -11 -23 -9 -27 14 -35 35 -14 36 -13 29 10 -4 12 -2 20 6 20 9 0 9 3 0 14 -9 11 -7 15 10 19 14 4 20 11 16 21 -4 10 -1 13 9 9 10 -4 13 0 8 13 -7 18 -6 18 12 1 19 -18 18 -19 -9 -43 -15 -13 -24 -24 -18 -24 6 0 22 12 37 27 l27 27 10 -22 c6 -12 14 -22 19 -22 11 0 10 7 -3 32 -8 15 -8 19 0 14 6 -4 11 -3 11 3 0 5 -4 13 -10 16 -5 3 -10 11 -10 16 0 6 5 7 10 4 6 -3 10 -1 10 4 0 6 5 11 11 11 7 0 10 -12 7 -30 -5 -32 1 -37 20 -18 9 9 12 8 12 -5 0 -9 -8 -21 -17 -26 -17 -10 -17 -10 0 -11 11 0 21 8 24 19 3 12 14 19 29 19 29 0 32 -18 4 -25 -11 -3 -20 -12 -20 -20 0 -9 8 -6 26 10 23 22 24 27 12 46 -7 12 -20 24 -29 26 -17 6 -24 55 -7 55 5 0 6 -4 3 -10 -3 -5 3 -10 14 -10 11 0 23 -4 26 -10 10 -17 19 -11 38 22 10 17 12 26 5 21 -18 -14 -70 -14 -65 1 2 6 17 11 33 11 25 1 29 5 30 30 0 17 -3 38 -8 48 -16 31 0 32 28 1 l26 -29 -6 28 c-5 19 -3 27 8 27 8 0 25 27 39 63 14 34 110 262 213 507 167 395 188 451 189 501 0 46 -5 62 -29 93 -51 67 -135 87 -160 39z m-246 -1094 c0 -4 -11 -6 -25 -6 -13 0 -22 3 -20 8 6 9 45 8 45 -2z m-10 -48 c-6 -12 -15 -21 -21 -21 -10 0 -5 13 14 38 15 19 20 7 7 -17z m-120 -16 c0 -8 -4 -15 -10 -15 -5 0 -7 7 -4 15 4 8 8 15 10 15 2 0 4 -7 4 -15z m-103 -52 c-15 -16 -17 -16 -17 -1 0 9 6 18 13 21 20 7 22 -2 4 -20z m75 -15 c-7 -7 -12 -8 -12 -2 0 14 12 26 19 19 2 -3 -1 -11 -7 -17z m-64 -45 c-14 -18 -28 -16 -23 2 16 51 17 51 25 30 4 -11 3 -26 -2 -32z m94 15 c-9 -9 -9 -15 0 -26 9 -10 8 -16 -3 -23 -19 -12 -29 -11 -29 1 0 6 5 10 12 10 9 0 9 3 1 11 -15 15 -5 39 15 39 12 0 13 -3 4 -12z m42 -13 c3 -9 0 -15 -9 -15 -8 0 -15 7 -15 15 0 8 4 15 9 15 5 0 11 -7 15 -15z m-189 -34 c3 -5 1 -12 -5 -16 -5 -3 -10 1 -10 9 0 18 6 21 15 7z m75 -10 c0 -6 -4 -13 -10 -16 -5 -3 -10 1 -10 9 0 9 5 16 10 16 6 0 10 -4 10 -9z m-70 -31 c0 -5 -4 -10 -10 -10 -5 0 -10 5 -10 10 0 6 5 10 10 10 6 0 10 -4 10 -10z m90 -4 c0 -3 -4 -8 -10 -11 -5 -3 -10 -1 -10 4 0 6 5 11 10 11 6 0 10 -2 10 -4z m-74 -24 c0 -21 -41 -29 -52 -10 -4 7 -3 8 5 4 6 -4 18 0 27 8 19 20 20 20 20 -2z m94 8 c0 -5 -5 -10 -11 -10 -5 0 -7 5 -4 10 3 6 8 10 11 10 2 0 4 -4 4 -10z" fill="#db0000"/>
<path d="M2715 4155 c-105 -32 -195 -103 -242 -192 -17 -32 -61 -130 -98 -218 -37 -88 -98 -232 -135 -320 -37 -88 -113 -268 -168 -400 -55 -132 -112 -266 -126 -298 -15 -32 -24 -63 -21 -68 4 -5 2 -9 -2 -9 -9 0 -45 -80 -49 -106 -1 -8 2 -16 7 -20 9 -5 13 9 10 33 -1 6 3 14 9 18 5 3 10 1 10 -5 0 -17 26 -40 46 -40 14 0 12 -4 -8 -23 -20 -18 -23 -28 -16 -41 13 -23 3 -32 -17 -16 -13 11 -15 9 -16 -11 -1 -13 -1 -27 0 -31 0 -5 -5 -8 -11 -8 -9 0 -8 -4 2 -10 23 -15 29 -12 23 10 -3 11 0 20 6 20 6 0 11 -5 11 -11 0 -5 5 -7 10 -4 6 4 8 11 4 16 -6 10 32 49 47 49 4 0 4 14 -1 31 -7 22 -6 29 3 26 6 -2 18 3 26 10 27 28 35 -3 12 -47 -21 -40 -21 -41 -1 -30 12 6 23 25 27 41 4 22 8 27 14 17 7 -10 9 -10 9 0 0 6 5 12 10 12 6 0 10 -12 10 -26 0 -14 4 -23 9 -20 5 4 8 17 6 31 -1 14 2 25 6 25 5 0 15 13 24 29 13 26 13 31 0 45 -15 14 -11 46 5 46 14 0 21 -18 10 -23 -6 -3 -5 -4 2 -3 7 2 13 15 13 29 -1 14 2 24 6 21 8 -4 14 10 179 421 70 176 185 462 255 635 178 440 166 407 152 418 -8 6 -26 5 -52 -3z m-556 -1421 c-15 -18 -22 -13 -13 10 3 9 10 13 16 10 5 -3 4 -12 -3 -20z m-175 -11 c-5 -5 -12 -12 -16 -18 -4 -6 -8 -2 -8 8 0 9 7 17 17 17 9 0 12 -3 7 -7z m78 -30 c-7 -11 -5 -21 4 -31 10 -10 11 -18 4 -33 -18 -32 -27 -21 -25 29 3 55 2 52 15 52 7 0 8 -6 2 -17z m-62 -13 c-6 -11 -15 -20 -20 -20 -14 0 -12 6 6 24 21 22 27 20 14 -4z m141 -3 c-13 -13 -26 -3 -16 12 3 6 11 8 17 5 6 -4 6 -10 -1 -17z m-190 -49 c-5 -13 -17 -24 -27 -26 -11 -2 -15 0 -8 5 6 4 13 16 17 26 3 9 11 17 16 17 7 0 7 -9 2 -22z m194 -28 c3 -5 1 -10 -4 -10 -6 0 -11 5 -11 10 0 6 2 10 4 10 3 0 8 -4 11 -10z m-55 -20 c0 -5 -4 -10 -10 -10 -5 0 -10 5 -10 10 0 6 5 10 10 10 6 0 10 -4 10 -10z m-135 -110 c3 -5 1 -10 -4 -10 -6 0 -11 5 -11 10 0 6 2 10 4 10 3 0 8 -4 11 -10z" fill="#db0000"/>
<path d="M2910 3742 c6 -13 14 -21 18 -18 3 4 -2 14 -12 24 -18 16 -18 16 -6 -6z" fill="#db0000"/>
<path d="M2950 3710 c0 -5 9 -14 20 -20 23 -12 25 -23 8 -42 -7 -8 -18 -23 -25 -35 -10 -17 -9 -22 3 -27 10 -4 12 -2 8 6 -4 6 1 17 10 24 10 7 17 16 16 21 0 4 8 9 19 11 25 4 16 42 -10 42 -11 0 -22 7 -25 15 -7 17 -24 21 -24 5z" fill="#db0000"/>
<path d="M2947 3661 c-4 -17 -3 -21 5 -13 5 5 8 16 6 23 -3 8 -7 3 -11 -10z" fill="#db0000"/>
<path d="M2880 3646 c0 -8 5 -18 10 -21 6 -3 10 1 10 9 0 8 -4 18 -10 21 -5 3 -10 -1 -10 -9z" fill="#db0000"/>
<path d="M3000 3611 c-13 -9 -12 -11 1 -16 9 -3 16 -18 17 -35 0 -17 4 -35 8 -42 5 -7 9 -20 9 -30 1 -13 -2 -15 -17 -7 -14 7 -20 6 -24 -6 -3 -8 -10 -12 -15 -9 -5 3 -22 3 -38 -1 -26 -5 -28 -9 -26 -48 2 -23 -1 -47 -7 -54 -16 -20 10 -25 44 -9 32 16 54 13 28 -5 -13 -8 -13 -10 0 -20 13 -9 12 -10 -2 -5 -10 3 -20 1 -23 -4 -7 -12 -46 -14 -43 -2 2 4 -5 18 -16 32 -20 28 -19 24 9 -42 15 -35 24 -45 41 -44 15 1 19 6 16 19 -2 9 1 17 8 17 6 0 10 -10 8 -22 -2 -15 -10 -23 -22 -23 -11 0 -21 -6 -22 -13 -1 -7 0 -9 2 -4 5 9 84 -57 84 -69 0 -4 -14 -5 -32 -3 -30 4 -30 3 -15 -14 10 -10 14 -21 11 -24 -3 -4 49 -136 116 -295 67 -158 175 -414 240 -568 65 -154 168 -399 230 -545 62 -146 141 -334 176 -419 36 -84 78 -173 95 -197 56 -82 159 -142 270 -158 58 -9 74 6 54 49 -7 17 -96 226 -198 465 -782 1840 -821 1929 -830 1923 -5 -3 -7 0 -5 8 6 15 -20 90 -34 100 -5 3 -10 13 -12 21 -1 9 -7 23 -14 31 -7 8 -12 19 -11 23 1 5 0 12 -1 17 -1 4 -3 13 -4 20 -1 15 -36 20 -56 8z m58 -171 c0 -16 -3 -30 -7 -30 -8 0 -12 28 -5 48 6 21 11 14 12 -18z m-88 -6 c0 -11 6 -13 21 -9 18 6 20 4 15 -13 -4 -11 -2 -23 4 -27 5 -3 10 -11 10 -17 0 -6 -8 -4 -18 5 -10 10 -22 14 -27 10 -4 -5 -5 -2 -1 5 4 6 1 19 -7 27 -17 16 -28 10 -20 -11 3 -8 0 -14 -6 -14 -19 0 -17 50 2 62 15 9 27 1 27 -18z m90 -84 c0 -4 -6 -10 -14 -13 -10 -4 -12 0 -9 14 5 18 23 18 23 -1z m81 -41 c11 -5 17 -15 13 -21 -4 -7 -9 -6 -15 3 -4 8 -13 15 -19 15 -5 1 -14 2 -20 3 -5 0 -10 10 -10 22 0 19 1 19 16 5 8 -9 24 -21 35 -27z m-91 -41 c0 -10 -4 -18 -10 -18 -5 0 -10 5 -10 10 0 6 -7 10 -15 10 -8 0 -15 4 -15 9 0 5 11 8 25 7 17 -1 25 -7 25 -18z m-20 -52 c0 -6 -5 -3 -11 7 -6 9 -14 15 -20 12 -5 -4 -9 2 -9 11 0 16 1 16 20 -1 11 -10 20 -23 20 -29z m60 28 c0 -8 -4 -12 -10 -9 -5 3 -10 10 -10 16 0 5 5 9 10 9 6 0 10 -7 10 -16z m23 -54 c3 -11 1 -18 -4 -14 -5 3 -9 12 -9 20 0 20 7 17 13 -6z m-69 -85 c3 -8 1 -15 -4 -15 -6 0 -10 7 -10 15 0 8 2 15 4 15 2 0 6 -7 10 -15z m12 -40 c9 -8 11 -15 6 -15 -5 0 -15 7 -22 15 -7 8 -9 15 -6 15 4 0 14 -7 22 -15z m34 5 c0 -5 -2 -10 -4 -10 -3 0 -8 5 -11 10 -3 6 -1 10 4 10 6 0 11 -4 11 -10z m730 -1474 c0 -3 -4 -8 -10 -11 -5 -3 -10 -1 -10 4 0 6 5 11 10 11 6 0 10 -2 10 -4z" fill="#db0000"/>
<path d="M2858 3603 c7 -3 16 -2 19 1 4 3 -2 6 -13 5 -11 0 -14 -3 -6 -6z" fill="#db0000"/>
<path d="M2830 3599 c0 -4 7 -22 15 -40 10 -25 14 -29 15 -13 0 17 -29 70 -30 53z" fill="#db0000"/>
<path d="M2887 3581 c-16 -16 -16 -19 -3 -24 10 -4 20 1 26 13 19 35 7 41 -23 11z" fill="#db0000"/>
<path d="M2939 3566 c17 -20 4 -39 -21 -33 -26 7 -18 -12 13 -32 22 -14 23 -14 11 0 -10 13 -9 19 3 29 20 16 19 36 -1 44 -14 5 -15 4 -5 -8z" fill="#db0000"/>
<path d="M2685 3540 c3 -5 8 -10 11 -10 2 0 4 5 4 10 0 6 -5 10 -11 10 -5 0 -7 -4 -4 -10z" fill="#db0000"/>
<path d="M2995 3540 c-3 -5 -2 -17 3 -26 8 -14 10 -12 10 9 0 29 -3 33 -13 17z" fill="#db0000"/>
<path d="M2960 3513 c0 -5 5 -15 10 -23 8 -12 10 -11 10 8 0 12 -4 22 -10 22 -5 0 -10 -3 -10 -7z" fill="#db0000"/>
<path d="M2680 3470 c0 -28 -2 -30 -22 -20 -22 11 -22 10 -4 -4 29 -23 41 -20 44 11 1 15 8 30 15 35 8 5 4 8 -10 8 -19 0 -23 -5 -23 -30z" fill="#db0000"/>
<path d="M2837 3494 c-7 -7 2 -34 12 -34 4 0 7 9 7 20 0 20 -7 25 -19 14z" fill="#db0000"/>
<path d="M2873 3463 c1 -10 6 -24 10 -30 5 -7 4 -13 -1 -13 -6 0 -8 -9 -5 -20 8 -32 17 -14 18 35 0 30 -4 45 -12 45 -7 0 -12 -8 -10 -17z" fill="#db0000"/>
<path d="M2715 3432 c-5 -25 -10 -29 -28 -24 -12 3 -26 10 -30 16 -6 8 -10 7 -14 -1 -2 -7 -12 -13 -20 -13 -9 0 -13 -3 -10 -7 4 -3 2 -12 -4 -20 -8 -8 -8 -13 -1 -13 6 0 12 6 15 13 3 9 8 9 18 -2 11 -10 11 -15 2 -18 -7 -3 -13 -12 -13 -20 0 -11 -6 -14 -21 -10 -16 4 -19 2 -15 -10 4 -10 2 -13 -8 -10 -10 4 -13 1 -9 -8 3 -8 9 -12 14 -9 10 6 39 -13 39 -26 0 -4 -6 -10 -14 -13 -10 -4 -12 0 -8 15 4 15 1 19 -9 16 -8 -3 -21 1 -31 9 -11 10 -18 11 -23 4 -3 -6 -1 -11 5 -11 7 0 10 -7 6 -15 -8 -22 14 -64 38 -71 24 -8 37 -24 29 -37 -3 -4 -11 0 -19 10 -15 21 -19 3 -5 -25 5 -9 16 -35 24 -57 9 -22 81 -201 161 -398 80 -197 146 -364 146 -372 0 -8 -11 -27 -24 -42 l-24 -28 -756 -3 -757 -2 -10 -28 c-15 -39 -2 -107 28 -142 51 -61 45 -60 473 -60 253 0 390 4 390 10 0 6 5 10 11 10 5 0 7 -4 4 -10 -4 -7 175 -10 529 -10 454 0 536 2 536 14 0 8 -31 88 -69 178 -38 89 -94 224 -126 298 -31 74 -93 221 -137 325 -124 293 -139 329 -148 350 -5 11 -19 45 -31 75 -11 30 -24 59 -28 65 -5 5 -16 34 -27 63 -24 69 -40 83 -49 44z m30 -30 c-8 -8 -25 10 -19 20 4 6 9 5 15 -3 4 -7 6 -15 4 -17z m-15 -22 c0 -5 -5 -10 -11 -10 -5 0 -7 5 -4 10 3 6 8 10 11 10 2 0 4 -4 4 -10z m33 -12 c2 -7 1 -22 -3 -33 -7 -19 -7 -19 -19 3 -8 15 -8 22 -1 22 6 0 8 5 5 10 -3 6 -2 10 3 10 6 0 12 -6 15 -12z m-103 -28 c0 -5 -2 -10 -4 -10 -3 0 -8 5 -11 10 -3 6 -1 10 4 10 6 0 11 -4 11 -10z m30 -20 c0 -5 -4 -10 -10 -10 -5 0 -10 5 -10 10 0 6 5 10 10 10 6 0 10 -4 10 -10z m10 -80 c25 -23 30 -34 22 -42 -9 -9 -12 -8 -12 3 0 8 -10 19 -22 24 -13 6 -24 18 -26 28 -5 24 1 22 38 -13z m60 20 c0 -5 -2 -10 -4 -10 -3 0 -8 5 -11 10 -3 6 -1 10 4 10 6 0 11 -4 11 -10z m50 -5 c0 -1 -6 -7 -13 -13 -10 -8 -13 -6 -13 7 0 11 6 17 13 14 7 -3 13 -6 13 -8z m-145 -103 c-8 -8 -25 10 -19 20 4 6 9 5 15 -3 4 -7 6 -15 4 -17z m25 -55 c0 -5 -4 -5 -10 -2 -5 3 -10 14 -10 23 0 15 2 15 10 2 5 -8 10 -19 10 -23z m102 -909 c-7 -7 -12 -8 -12 -2 0 14 12 26 19 19 2 -3 -1 -11 -7 -17z m283 12 c3 -5 1 -10 -4 -10 -6 0 -11 5 -11 10 0 6 2 10 4 10 3 0 8 -4 11 -10z m-1555 -40 c0 -5 -4 -10 -10 -10 -5 0 -10 5 -10 10 0 6 5 10 10 10 6 0 10 -4 10 -10z m1612 -32 c-7 -7 -12 -8 -12 -2 0 14 12 26 19 19 2 -3 -1 -11 -7 -17z m-1132 -38 c0 -5 -4 -10 -10 -10 -5 0 -10 5 -10 10 0 6 5 10 10 10 6 0 10 -4 10 -10z m-480 -24 c0 -3 -4 -8 -10 -11 -5 -3 -10 -1 -10 4 0 6 5 11 10 11 6 0 10 -2 10 -4z" fill="#db0000"/>
<path d="M1830 2745 c0 -8 5 -15 10 -15 6 0 10 7 10 15 0 8 -4 15 -10 15 -5 0 -10 -7 -10 -15z" fill="#db0000"/>
<path d="M1656 2665 c-3 -8 -1 -15 3 -15 5 0 11 7 15 15 3 8 1 15 -3 15 -5 0 -11 -7 -15 -15z" fill="#db0000"/>
<path d="M1757 2648 c-10 -11 -15 -23 -11 -29 4 -6 12 -2 21 11 19 28 13 41 -10 18z" fill="#db0000"/>
<path d="M1690 2646 c0 -8 -8 -17 -17 -19 -14 -4 -12 -5 5 -6 16 -1 22 5 22 19 0 11 -2 20 -5 20 -3 0 -5 -6 -5 -14z" fill="#db0000"/>
<path d="M1636 2613 c-6 -14 -5 -15 5 -6 7 7 10 15 7 18 -3 3 -9 -2 -12 -12z" fill="#db0000"/>
<path d="M1767 2600 c-13 -16 -14 -20 -3 -20 8 0 17 7 20 16 9 25 2 26 -17 4z" fill="#db0000"/>
<path d="M1516 2585 c-8 -32 -2 -42 17 -27 8 7 17 9 20 5 4 -3 7 -1 7 5 0 6 7 9 15 6 8 -4 15 -1 15 6 0 8 -8 10 -22 7 -13 -4 -26 0 -33 10 -11 14 -13 13 -19 -12z" fill="#db0000"/>
<path d="M1606 2595 c-3 -8 -1 -15 4 -15 6 0 10 7 10 15 0 8 -2 15 -4 15 -2 0 -6 -7 -10 -15z" fill="#db0000"/>
<path d="M1653 2573 c-22 -8 -14 -18 17 -20 22 -2 28 1 23 12 -5 15 -18 18 -40 8z" fill="#db0000"/>
<path d="M1712 2550 c-7 -11 -12 -28 -12 -37 1 -10 7 -3 16 16 16 38 14 50 -4 21z" fill="#db0000"/>
<path d="M1565 2550 c-3 -5 1 -10 10 -10 9 0 13 5 10 10 -3 6 -8 10 -10 10 -2 0 -7 -4 -10 -10z" fill="#db0000"/>
<path d="M1526 2524 c-4 -9 -4 -19 -1 -22 2 -3 7 3 11 12 4 9 4 19 1 22 -2 3 -7 -3 -11 -12z" fill="#db0000"/>
<path d="M1625 2519 c-11 -17 1 -21 15 -4 8 9 8 15 2 15 -6 0 -14 -5 -17 -11z" fill="#db0000"/>
<path d="M1889 2499 c-30 -30 -16 -35 16 -5 16 15 23 26 16 26 -6 0 -20 -9 -32 -21z" fill="#db0000"/>
<path d="M2005 2500 c-3 -5 -1 -10 4 -10 6 0 11 5 11 10 0 6 -2 10 -4 10 -3 0 -8 -4 -11 -10z" fill="#db0000"/>
<path d="M2062 2469 c-14 -21 -8 -39 11 -38 9 0 9 2 0 6 -10 3 -10 10 -2 25 14 26 7 33 -9 7z" fill="#db0000"/>
<path d="M1820 2429 c-17 -30 -6 -34 14 -4 9 14 12 25 7 25 -6 0 -15 -9 -21 -21z" fill="#db0000"/>
<path d="M1866 2441 c-4 -7 -5 -15 -2 -18 9 -9 19 4 14 18 -4 11 -6 11 -12 0z" fill="#db0000"/>
<path d="M2051 2404 c0 -11 3 -14 6 -6 3 7 2 16 -1 19 -3 4 -6 -2 -5 -13z" fill="#db0000"/>
<path d="M1353 1906 c-80 -25 -160 -92 -197 -165 -35 -66 -120 -61 992 -61 787 0 1012 -3 1032 -13 28 -14 41 -42 206 -447 59 -146 112 -268 118 -272 24 -16 107 14 142 54 66 72 69 135 14 264 -22 52 -40 96 -40 99 0 3 -13 33 -29 67 -15 35 -68 159 -117 275 l-89 213 -995 -1 c-789 0 -1004 -3 -1037 -13z m2107 -236 c0 -5 -2 -10 -4 -10 -3 0 -8 5 -11 10 -3 6 -1 10 4 10 6 0 11 -4 11 -10z m60 -250 c0 -5 -4 -10 -10 -10 -5 0 -10 5 -10 10 0 6 5 10 10 10 6 0 10 -4 10 -10z" fill="#db0000"/>
<path d="M1025 1443 c-32 -76 -64 -151 -71 -168 -84 -187 -131 -311 -122 -322 13 -16 85 -7 155 19 66 24 156 105 188 167 36 73 175 409 175 426 0 13 -21 15 -133 15 l-134 0 -58 -137z m165 -93 c0 -5 -2 -10 -4 -10 -3 0 -8 5 -11 10 -3 6 -1 10 4 10 6 0 11 -4 11 -10z" fill="#db0000"/>
<path d="M1442 1528 c-12 -29 -50 -123 -86 -208 -77 -182 -82 -219 -37 -291 29 -46 67 -71 129 -84 38 -8 18 -46 176 341 58 143 106 268 106 277 0 15 -15 17 -134 17 l-133 0 -21 -52z" fill="#db0000"/>
</g>
</svg>