<svg xmlns="http://www.w3.org/2000/svg" width="858" height="680" viewBox="0 0 858 680" fill="none">
<g clip-path="url(#clip0_1727_6471)">
<path d="M810.798 186.131C810.798 271.427 741.818 340.617 656.783 340.617C571.747 340.617 502.857 271.427 502.857 186.131C502.857 100.836 571.747 31.7354 656.783 31.7354C741.818 31.7354 810.798 100.836 810.798 186.131Z" fill="#E5F1FF"/>
<path d="M350.099 511.748C350.099 561.594 309.824 601.992 260.13 601.992C210.436 601.992 170.161 561.594 170.161 511.748C170.161 461.902 210.436 421.504 260.13 421.504C309.824 421.504 350.099 461.902 350.099 511.748Z" fill="#E5F1FF"/>
<path fill-rule="evenodd" clip-rule="evenodd" d="M341.22 165.707C341.22 211.324 304.353 248.214 258.965 248.214C213.487 248.214 176.62 211.324 176.62 165.707C176.62 120.18 213.487 83.2007 258.965 83.2007C304.353 83.2007 341.22 120.18 341.22 165.707ZM311.529 165.707C311.529 136.555 287.938 112.982 258.965 112.982C229.902 112.982 206.311 136.555 206.311 165.707C206.311 194.859 229.902 218.522 258.965 218.522C287.938 218.522 311.529 194.859 311.529 165.707Z" fill="#A9CCEA"/>
<path d="M569.775 610.81C569.775 616.028 565.469 620.257 560.266 620.257H321.575C316.372 620.257 312.156 616.028 312.156 610.81C312.156 605.591 316.372 601.362 321.575 601.362H406.341L418.002 579.679H438.274H443.656H463.839L475.59 601.362H560.266C565.469 601.362 569.775 605.591 569.775 610.81Z" fill="#0F3157"/>
<path d="M458.546 571.581H419.437V560.064H458.546V571.581Z" fill="#FF4D6B"/>
<path d="M458.546 552.597H419.437V541.17H458.546V552.597Z" fill="#FF4D6B"/>
<path d="M750.341 502.211C743.523 504.82 736.168 506.26 728.454 506.26C694.637 506.26 667.278 478.817 667.278 444.897C667.278 411.067 694.637 383.535 728.454 383.535C762.271 383.535 789.629 411.067 789.629 444.897C789.629 453.985 787.656 462.622 784.157 470.36" stroke="#FF4D6B" stroke-width="2.3" stroke-linecap="round" stroke-linejoin="round"/>
<path fill-rule="evenodd" clip-rule="evenodd" d="M585.292 164.537V186.311C585.292 190.54 581.884 193.959 577.668 193.959H567.891C565.917 202.686 562.509 210.784 557.934 218.162L564.841 225.09C567.801 228.149 567.801 232.918 564.841 235.887L549.502 251.272C546.452 254.332 541.698 254.332 538.648 251.272L531.831 244.434C524.476 248.933 516.313 252.442 507.612 254.422V264.229C507.612 268.458 504.204 271.877 499.988 271.877H478.28C474.064 271.877 470.656 268.458 470.656 264.229V254.422C462.045 252.442 453.882 248.933 446.526 244.434L439.62 251.272C436.659 254.332 431.816 254.332 428.856 251.272L413.517 235.887C410.557 232.918 410.557 228.149 413.517 225.09L420.424 218.162C415.849 210.784 412.44 202.686 410.377 193.959H400.6C396.384 193.959 392.976 190.54 392.976 186.311V164.537C392.976 160.308 396.384 156.889 400.6 156.889H410.377C412.44 148.162 415.849 140.064 420.424 132.686L413.517 125.758C410.557 122.789 410.557 117.931 413.517 114.961L428.856 99.5758C431.816 96.5167 436.659 96.5167 439.62 99.5758L446.526 106.504C453.882 101.915 462.045 98.4961 470.656 96.4267V86.6195C470.656 82.3907 474.064 78.9717 478.28 78.9717H499.988C504.204 78.9717 507.612 82.3907 507.612 86.6195V96.4267C516.313 98.4961 524.476 101.915 531.831 106.504L538.648 99.5758C541.698 96.5167 546.452 96.5167 549.502 99.5758L564.841 114.961C567.801 117.931 567.801 122.789 564.841 125.758L557.934 132.686C562.509 140.064 565.917 148.162 567.891 156.889H577.668C581.884 156.889 585.292 160.308 585.292 164.537ZM527.884 175.424C527.884 154.01 510.483 136.645 489.134 136.645C467.785 136.645 450.473 154.01 450.473 175.424C450.473 196.838 467.785 214.203 489.134 214.203C510.483 214.203 527.884 196.838 527.884 175.424Z" fill="#289DF2"/>
<path d="M168.636 538.651C157.334 538.651 148.095 529.383 148.095 518.046V195.039C148.095 183.702 157.334 174.435 168.636 174.435H706.029C717.421 174.435 726.66 183.702 726.66 195.039V518.046C726.66 529.383 717.421 538.651 706.029 538.651H168.636Z" fill="#0F3775"/>
<path d="M253.492 229.949H193.842V216.812H253.492V229.949Z" fill="#284D89"/>
<path d="M325.342 229.949H265.691V216.812H325.342V229.949Z" fill="#284D89"/>
<path d="M507.433 229.949H447.692V216.812H507.433V229.949Z" fill="#284D89"/>
<path d="M689.434 229.949H629.783V216.812H689.434V229.949Z" fill="#284D89"/>
<path d="M440.158 229.949H333.415V216.812H440.158V229.949Z" fill="#FF4D6B"/>
<path d="M621.172 229.949H514.519V216.812H621.172V229.949Z" fill="#2889DB"/>
<path d="M204.605 212.763H194.2V206.285H204.605V212.763Z" fill="#2889DB"/>
<path d="M303.275 247.224H194.2V240.835H303.275V247.224Z" fill="white"/>
<path d="M226.582 258.561H194.2V252.172H226.582V258.561Z" fill="white"/>
<path d="M309.644 489.705H208.552C201.017 489.705 194.828 483.586 194.828 476.028V292.391C194.828 284.833 201.017 278.715 208.552 278.715H309.644C317.179 278.715 323.368 284.833 323.368 292.391V476.028C323.368 483.586 317.179 489.705 309.644 489.705Z" fill="#284D89"/>
<path d="M254.031 316.234H211.064V309.666H254.031V316.234Z" fill="white"/>
<path d="M254.031 330.9H211.064V324.332H254.031V330.9Z" fill="white"/>
<path d="M254.031 345.656H211.064V339.087H254.031V345.656Z" fill="white"/>
<path d="M237.347 407.018H211.064V400.45H237.347V407.018Z" fill="white"/>
<path d="M237.347 421.774H211.064V415.116H237.347V421.774Z" fill="white"/>
<path d="M282.555 421.774H256.272V415.116H282.555V421.774Z" fill="white"/>
<path d="M227.569 390.283H211.064V383.715H227.569V390.283Z" fill="white"/>
<path d="M290.628 390.283H281.838V383.715H290.628V390.283Z" fill="white"/>
<path d="M278.518 390.283H233.31V383.715H278.518V390.283Z" fill="#FF4D6B"/>
<path d="M217.343 365.45H211.064V358.882H217.343V365.45Z" fill="#2889DB"/>
<path d="M217.343 377.146H211.064V370.488H217.343V377.146Z" fill="#FF4D6B"/>
<path d="M246.137 423.124H243.715L249.366 414.666H251.788L246.137 423.124Z" fill="white"/>
<path d="M308.658 440.038H211.064V434.46H308.658V440.038Z" fill="#282E5C"/>
<path d="M308.658 452.725H211.064V447.146H308.658V452.725Z" fill="#282E5C"/>
<path d="M778.147 365.9H509.765C503.037 365.9 497.655 360.502 497.655 353.754V280.694C497.655 274.036 503.037 268.548 509.765 268.548H778.147C784.875 268.548 790.257 274.036 790.257 280.694V353.754C790.257 360.502 784.875 365.9 778.147 365.9Z" fill="#289DF2"/>
<path d="M584.664 331.44C584.664 331.44 599.465 294.91 641.982 303.728C684.41 312.545 706.028 360.502 760.655 321.273" stroke="white" stroke-width="2.3"/>
<path d="M722.175 339.538H716.075V333.509H722.175V339.538Z" fill="#289DF2" stroke="white" stroke-width="2.3"/>
<path d="M592.02 302.018H668.892H592.02Z" fill="#289DF2"/>
<path d="M592.02 302.018H668.892" stroke="white" stroke-width="1.1"/>
<path d="M680.733 338.188H757.606H680.733Z" fill="#289DF2"/>
<path d="M680.733 338.188H757.606" stroke="white" stroke-width="1.1"/>
<path d="M630.501 305.077H624.401V298.959H630.501V305.077Z" fill="#289DF2" stroke="white" stroke-width="2.3"/>
<path d="M548.875 391.003H490.928C486.084 391.003 482.138 387.044 482.138 382.185V294.91C482.138 290.052 486.084 286.093 490.928 286.093H548.875C553.718 286.093 557.665 290.052 557.665 294.91V382.185C557.665 387.044 553.718 391.003 548.875 391.003Z" fill="#284D89"/>
<path d="M536.944 306.967H493.888V301.028H536.944V306.967Z" fill="white"/>
<path d="M536.944 320.193H493.888V314.254H536.944V320.193Z" fill="white"/>
<path d="M510.123 333.509H493.888V327.571H510.123V333.509Z" fill="white"/>
<path d="M521.874 347.185H493.888V341.247H521.874V347.185Z" fill="#289DF2"/>
<path d="M512.814 360.501H493.888V354.473H512.814V360.501Z" fill="#289DF2"/>
<path d="M512.814 373.728H493.888V367.79H512.814V373.728Z" fill="white"/>
<path d="M743.075 255.321H773.394" stroke="#284D89" stroke-width="4.5" stroke-linecap="round" stroke-linejoin="round"/>
<path d="M674.903 427.082L664.408 435.359L649.428 438.059C649.428 438.059 635.255 437.159 633.91 437.159C632.564 437.159 622.966 429.421 622.966 429.421L605.206 422.943L592.917 427.532L578.385 424.383L556.499 422.943L535.598 431.221L518.286 433.92L502.768 438.958L485.456 440.308L466.799 425.732L449.486 422.493L431.726 432.57L417.643 437.159L401.587 436.709L381.404 449.036H369.384L349.022 456.144" stroke="#FF5C66" stroke-width="2"/>
<path d="M349.381 456.504H675.351" stroke="#F7F7F7" stroke-width="0.5"/>
<path d="M349.471 460.553H346.152V452.365H349.471V460.553Z" fill="#F7F7F7"/>
<path d="M676.697 460.553H673.378V452.365H676.697V460.553Z" fill="#F7F7F7"/>
<path d="M675.082 456.504V428.882" stroke="#F7F7F7" stroke-width="0.5"/>
<path d="M676.876 427.532C676.876 428.972 675.71 430.141 674.275 430.141C672.84 430.141 671.674 428.972 671.674 427.532C671.674 426.093 672.84 424.923 674.275 424.923C675.71 424.923 676.876 426.093 676.876 427.532Z" fill="#F7F7F7"/>
<path d="M627.363 471.979H424.641V468.38H627.363V471.979Z" fill="#28385E"/>
<path d="M549.055 471.979H424.641V468.38H549.055V471.979Z" fill="#FF4D6B"/>
<path d="M524.297 478.997H424.641V475.398H524.297V478.997Z" fill="#28385E"/>
<path d="M361.401 486.285H373.69L375.305 482.776H350.458V488.535H359.159L361.401 486.285Z" fill="#FF4D6B"/>
<path d="M386.876 484.126H385.53V482.776H386.876V484.126Z" fill="#F7F7F7"/>
<path d="M395.398 484.126H393.963V482.776H395.398V484.126Z" fill="#F7F7F7"/>
<path d="M403.83 484.126H402.484V482.776H403.83V484.126Z" fill="#F7F7F7"/>
<path d="M641.983 479.357H638.934L634.09 468.38H637.14L641.983 479.357Z" fill="#28385E"/>
<path d="M649.877 479.357H646.827L641.983 468.38H645.033L649.877 479.357Z" fill="#28385E"/>
<path d="M657.771 479.357H654.721L649.877 468.38H652.927L657.771 479.357Z" fill="#28385E"/>
<path d="M665.664 479.357H662.614L657.771 468.38H660.82L665.664 479.357Z" fill="#28385E"/>
<path d="M673.378 479.357H670.328L665.484 468.38H668.534L673.378 479.357Z" fill="#28385E"/>
<path d="M610.857 110.822V101.915H660.192V110.822H610.857Z" fill="#A9CCEA"/>
<path d="M610.857 126.658V117.75H685.308V126.658H610.857Z" fill="#A9CCEA"/>
<path d="M610.857 142.493V133.676H702.621V142.493H610.857Z" fill="#A9CCEA"/>
<path d="M610.857 158.419V149.511H645.93V158.419H610.857Z" fill="#A9CCEA"/>
<path d="M93.0186 217.622V208.805H142.354V217.622H93.0186Z" fill="#2889DB"/>
<path d="M93.0186 233.548V224.64H167.38V233.548H93.0186Z" fill="#A9CCEA"/>
<path d="M93.0186 249.383V240.565H184.782V249.383H93.0186Z" fill="#A9CCEA"/>
<path d="M93.0186 265.218V256.401H128.091V265.218H93.0186Z" fill="#A9CCEA"/>
<path d="M426.524 547.558H216.088V520.116H426.524V547.558Z" stroke="#289DF2" stroke-width="2.3"/>
<path d="M327.673 366.62H317.627V304.357H327.673V366.62Z" stroke="#289DF2" stroke-width="2.3"/>
<path d="M763.347 444.897C763.347 464.242 747.739 479.897 728.454 479.897C709.168 479.897 693.561 464.242 693.561 444.897C693.561 425.643 709.168 409.987 728.454 409.987C747.739 409.987 763.347 425.643 763.347 444.897Z" fill="#FF4D6B"/>
<path d="M725.942 441.658L712.038 446.697L725.942 451.735V456.954L706.118 449.396V443.997L725.942 436.439V441.658Z" fill="#F9FBFC"/>
<path d="M730.427 436.439L750.25 443.997V449.396L730.427 456.954V451.735L744.33 446.697L730.427 441.658V436.439Z" fill="#F9FBFC"/>
<path d="M786.579 473.509C786.579 476.028 784.516 478.098 782.005 478.098C779.493 478.098 777.52 476.028 777.52 473.509C777.52 470.99 779.493 468.92 782.005 468.92C784.516 468.92 786.579 470.99 786.579 473.509Z" stroke="#FF4D6B" stroke-width="2.3"/>
<path d="M369.833 159.949H204.965V142.764H369.833V159.949Z" stroke="#289DF2" stroke-width="2.3"/>
<path d="M314.219 153.38H212.051V148.342H314.219V153.38Z" fill="#289DF2"/>
<path d="M465.902 283.394H345.256V277.365H465.902V283.394Z" fill="#284D89"/>
<path d="M399.973 283.394H345.256V277.365H399.973V283.394Z" fill="#2889DB"/>
<path d="M465.902 299.139H345.256V293.021H465.902V299.139Z" fill="#284D89"/>
<path d="M429.305 299.139H345.256V293.021H429.305V299.139Z" fill="#FF4D6B"/>
<path d="M465.902 314.884H345.256V308.766H465.902V314.884Z" fill="#284D89"/>
<path d="M369.834 314.884H345.256V308.766H369.834V314.884Z" fill="#1AE5FF"/>
<path d="M348.126 269.087H345.704V266.658H348.126V269.087Z" fill="#284D89"/>
<path d="M356.198 269.087H353.866V266.658H356.198V269.087Z" fill="#284D89"/>
<path d="M364.272 269.087H361.939V266.658H364.272V269.087Z" fill="#284D89"/>
<path d="M574.259 353.573H570.312V349.614H574.259V353.573Z" fill="white"/>
<path d="M587.803 353.573H583.856V349.614H587.803V353.573Z" fill="white"/>
<path d="M601.258 353.573H597.312V349.614H601.258V353.573Z" fill="white"/>
<path d="M634.538 200.167H627.093V192.789H634.538V200.167Z" fill="white"/>
<path d="M659.744 200.167H652.389V192.789H659.744V200.167Z" fill="white"/>
<path d="M685.039 200.167H677.684V192.789H685.039V200.167Z" fill="white"/>
<path d="M529.947 505.9H522.592V498.522H529.947V505.9Z" fill="white"/>
<path d="M555.243 505.9H547.888V498.522H555.243V505.9Z" fill="white"/>
<path d="M580.538 505.9H573.183V498.522H580.538V505.9Z" fill="white"/>
<path d="M217.164 297.609H213.217V293.65H217.164V297.609Z" fill="white"/>
<path d="M230.619 297.609H226.672V293.65H230.619V297.609Z" fill="white"/>
<path d="M244.074 297.609H240.127V293.65H244.074V297.609Z" fill="white"/>
<path d="M764.693 295.27H699.212V288.792H764.693V295.27Z" fill="white"/>
<path d="M718.677 306.607H699.212V300.129H718.677V306.607Z" fill="#287DD1"/>
<path d="M171.596 302.018H157.423V287.802H144.327V302.018H130.154V315.244H144.327V329.46H157.423V315.244H171.596V302.018Z" fill="#1AE5FF"/>
<path d="M133.743 341.606H125.042V332.969H117.058V341.606H108.447V349.614H117.058V358.342H125.042V349.614H133.743V341.606Z" fill="#2889DB"/>
<path fill-rule="evenodd" clip-rule="evenodd" d="M392.168 356.272C392.168 368.509 382.301 378.496 370.012 378.496C357.813 378.496 347.856 368.509 347.856 356.272C347.856 343.946 357.813 334.049 370.012 334.049C382.301 334.049 392.168 343.946 392.168 356.272ZM381.584 356.272C381.584 349.884 376.381 344.666 370.012 344.666C363.644 344.666 358.531 349.884 358.531 356.272C358.531 362.661 363.644 367.789 370.012 367.789C376.381 367.789 381.584 362.661 381.584 356.272Z" fill="#284D89"/>
<path d="M354.943 354.023C357.006 354.023 358.8 352.853 359.787 350.964C361.67 347.275 365.527 344.666 370.012 344.666C374.497 344.666 378.444 347.275 380.328 350.964C381.225 352.853 383.019 354.023 385.082 354.023C389.029 354.023 391.63 349.974 389.926 346.465C386.338 339.087 378.803 334.049 370.012 334.049C361.312 334.049 353.777 339.087 350.189 346.465C348.484 349.974 351.086 354.023 354.943 354.023Z" fill="#289DF2"/>
<path fill-rule="evenodd" clip-rule="evenodd" d="M429.394 334.049C441.593 334.049 451.55 343.946 451.55 356.272C451.55 368.509 441.593 378.496 429.394 378.496C417.195 378.496 407.238 368.509 407.238 356.272C407.238 343.946 417.195 334.049 429.394 334.049ZM429.394 344.666C423.025 344.666 417.823 349.884 417.823 356.272C417.823 362.661 423.025 367.789 429.394 367.789C435.763 367.789 440.965 362.661 440.965 356.272C440.965 349.884 435.763 344.666 429.394 344.666Z" fill="#284D89"/>
<path d="M427.241 371.388C427.241 369.319 425.986 367.519 424.102 366.53C420.424 364.64 417.823 360.771 417.823 356.273C417.823 351.774 420.424 347.815 424.102 345.926C425.986 345.026 427.241 343.226 427.241 341.157C427.241 337.198 423.115 334.589 419.617 336.298C412.261 339.897 407.238 347.455 407.238 356.273C407.238 365 412.261 372.558 419.617 376.247C423.115 377.957 427.241 375.257 427.241 371.388Z" fill="#FF4D6B"/>
<path d="M306.774 365.9H266.319V268.548H306.774V365.9Z" stroke="#289DF2" stroke-width="2.3"/>
<path d="M283.901 290.772H272.061V287.353H283.901V290.772Z" fill="#1AE5FF"/>
<path d="M283.901 298.599H272.061V295.09H283.901V298.599Z" fill="#1AE5FF"/>
<path d="M283.901 306.427H272.061V302.918H283.901V306.427Z" fill="#1AE5FF"/>
<path d="M283.901 347.006H272.061V343.497H283.901V347.006Z" fill="#1AE5FF"/>
<path d="M289.283 317.854H272.061V314.345H289.283V317.854Z" fill="#1AE5FF"/>
<path d="M289.283 325.681H272.061V322.172H289.283V325.681Z" fill="white"/>
<path d="M289.283 333.509H272.061V330H289.283V333.509Z" fill="white"/>
<path d="M172.583 441.658H121.364V390.283H172.583V441.658Z" fill="#289DF2"/>
<path d="M145.673 453.895H94.3643V402.429H145.673V453.895Z" stroke="#289DF2" stroke-width="2.3"/>
<path d="M752.494 560.784H730.966V539.1H752.494V560.784Z" stroke="#289DF2" stroke-width="2.3"/>
<path d="M472.002 504.91H490.211L500.347 515.077H605.565L621.711 498.882H678.312" stroke="white" stroke-width="2.3"/>
<path d="M472.002 505.18C472.002 508.149 469.669 510.489 466.709 510.489C463.749 510.489 461.417 508.149 461.417 505.18C461.417 502.211 463.749 499.872 466.709 499.872C469.669 499.872 472.002 502.211 472.002 505.18Z" stroke="white" stroke-width="2.3"/>
<path d="M689.165 498.612C689.165 501.581 686.744 503.921 683.873 503.921C680.913 503.921 678.491 501.581 678.491 498.612C678.491 495.643 680.913 493.304 683.873 493.304C686.744 493.304 689.165 495.643 689.165 498.612Z" stroke="white" stroke-width="2.3"/>
<path d="M755.184 218.522C755.184 222.211 752.224 225.27 748.457 225.27C744.779 225.27 741.729 222.211 741.729 218.522C741.729 214.743 744.779 211.774 748.457 211.774C752.224 211.774 755.184 214.743 755.184 218.522Z" fill="#289DF2"/>
<path d="M132.128 482.236C132.128 486.015 129.168 489.074 125.4 489.074C121.723 489.074 118.673 486.015 118.673 482.236C118.673 478.547 121.723 475.488 125.4 475.488C129.168 475.488 132.128 478.547 132.128 482.236Z" fill="#FF4D6B"/>
<path d="M163.164 507.339C163.164 513.818 157.872 519.126 151.414 519.126C144.866 519.126 139.573 513.818 139.573 507.339C139.573 500.771 144.866 495.463 151.414 495.463C157.872 495.463 163.164 500.771 163.164 507.339Z" fill="#FF4D6B"/>
<path d="M565.11 557.995H517.838V547.198H565.11V557.995Z" stroke="#289DF2" stroke-width="2.3"/>
<path d="M621.352 578.329H517.838V567.532H621.352V578.329Z" stroke="#289DF2" stroke-width="2.3"/>
<path d="M228.735 557.545L217.253 569.062" stroke="#289DF2" stroke-width="2.3" stroke-linecap="round" stroke-linejoin="round"/>
<path d="M239.678 557.545L228.286 569.062" stroke="#289DF2" stroke-width="2.3" stroke-linecap="round" stroke-linejoin="round"/>
<path d="M250.711 557.545L239.229 569.062" stroke="#289DF2" stroke-width="2.3" stroke-linecap="round" stroke-linejoin="round"/>
<path d="M261.744 557.545L250.263 569.062" stroke="#289DF2" stroke-width="2.3" stroke-linecap="round" stroke-linejoin="round"/>
<path d="M272.687 557.545L261.295 569.062" stroke="#289DF2" stroke-width="2.3" stroke-linecap="round" stroke-linejoin="round"/>
</g>
<defs>
<clipPath id="clip0_1727_6471">
<rect width="897" height="700" fill="white" transform="translate(0 -20)"/>
</clipPath>
</defs>
</svg>